<?xml version="1.0" encoding="utf-8"?>
<!-- Generator: Adobe Illustrator 16.0.0, SVG Export Plug-In . SVG Version: 6.00 Build 0)  -->
<!DOCTYPE svg PUBLIC "-//W3C//DTD SVG 1.1//EN" "http://www.w3.org/Graphics/SVG/1.1/DTD/svg11.dtd">
<svg version="1.1" id="Layer_1" xmlns="http://www.w3.org/2000/svg" xmlns:xlink="http://www.w3.org/1999/xlink" x="0px" y="0px"
	 width="463px" height="500px" viewBox="517.5 0 463 500" enable-background="new 517.5 0 463 500" xml:space="preserve">
<g>
	<path fill="#8CC84B" d="M729.617,6.348c12.344-7.065,28.423-7.098,40.755,0c62.048,35.06,124.116,70.065,186.153,105.146
		c11.668,6.573,19.473,19.559,19.354,33.004v210.936c0.086,14.002-8.489,27.298-20.8,33.721
		c-61.845,34.867-123.656,69.777-185.489,104.644c-12.601,7.205-29.001,6.648-41.204-1.146
		c-18.542-10.748-37.115-21.442-55.657-32.18c-3.789-2.259-8.061-4.058-10.737-7.729c2.366-3.189,6.595-3.586,10.031-4.978
		c7.74-2.462,14.848-6.412,21.956-10.245c1.799-1.23,3.993-0.76,5.717,0.343c15.854,9.089,31.569,18.445,47.478,27.448
		c3.394,1.959,6.83-0.643,9.731-2.259c60.688-34.3,121.45-68.471,182.127-102.78c2.248-1.082,3.49-3.469,3.309-5.932
		c0.042-69.584,0.011-139.178,0.021-208.762c0.257-2.794-1.36-5.363-3.887-6.509c-61.63-34.706-123.228-69.466-184.847-104.183
		c-2.205-1.499-5.053-1.509-7.258-0.011c-61.619,34.728-123.206,69.52-184.825,104.226c-2.516,1.146-4.207,3.672-3.907,6.477
		c0.01,69.584,0,139.178,0,208.772c-0.215,2.463,1.113,4.797,3.351,5.856c16.442,9.324,32.907,18.584,49.361,27.876
		c9.271,4.989,20.65,7.954,30.863,4.133c9.014-3.233,15.33-12.429,15.158-22c0.086-69.177-0.043-138.364,0.064-207.531
		c-0.225-3.072,2.687-5.609,5.674-5.32c7.9-0.054,15.812-0.107,23.712,0.021c3.297-0.075,5.566,3.233,5.16,6.327
		c-0.032,69.616,0.086,139.232-0.054,208.848c0.021,18.552-7.601,38.742-24.761,47.82c-21.144,10.951-47.274,8.628-68.16-1.874
		c-18.081-9.024-35.338-19.676-53.098-29.343c-12.344-6.391-20.876-19.74-20.79-33.731V144.499
		c-0.128-13.724,7.986-26.945,20.019-33.422C605.973,76.178,667.795,41.258,729.617,6.348z"/>
	<path fill="#8CC84B" d="M783.561,152.463c26.967-1.734,55.839-1.027,80.107,12.258c18.787,10.181,29.204,31.548,29.535,52.423
		c-0.524,2.815-3.468,4.368-6.155,4.175c-7.825-0.011-15.65,0.107-23.477-0.053c-3.318,0.128-5.245-2.934-5.663-5.867
		c-2.248-9.988-7.697-19.879-17.096-24.697c-14.431-7.226-31.163-6.862-46.899-6.712c-11.487,0.61-23.841,1.606-33.572,8.361
		c-7.472,5.117-9.741,15.448-7.076,23.766c2.517,5.974,9.41,7.9,15.052,9.678c32.501,8.5,66.939,7.654,98.82,18.841
		c13.199,4.561,26.109,13.424,30.627,27.246c5.909,18.52,3.318,40.657-9.859,55.527c-10.684,12.236-26.249,18.895-41.771,22.513
		c-20.65,4.604-42.082,4.722-63.054,2.677c-19.719-2.248-40.241-7.43-55.464-20.864c-13.018-11.306-19.376-28.915-18.744-45.915
		c0.149-2.869,3.008-4.871,5.759-4.635c7.879-0.064,15.758-0.086,23.638,0.01c3.146-0.225,5.48,2.494,5.641,5.46
		c1.456,9.517,5.032,19.505,13.328,25.146c16.016,10.331,36.109,9.624,54.447,9.913c15.19-0.675,32.244-0.878,44.641-10.919
		c6.541-5.728,8.479-15.309,6.712-23.552c-1.916-6.959-9.195-10.202-15.447-12.322c-32.084-10.148-66.908-6.465-98.681-17.941
		c-12.9-4.561-25.371-13.178-30.328-26.431c-6.915-18.755-3.747-41.954,10.812-56.32
		C743.588,159.936,764.077,154.434,783.561,152.463L783.561,152.463z"/>
</g>
</svg>
